<svg width="37" height="19" viewBox="0 0 37 19" fill="none" xmlns="http://www.w3.org/2000/svg">
<path d="M36.4166 2.33332C36.4166 1.85814 36.2279 1.40243 35.8919 1.06642C35.5559 0.730421 35.1001 0.541656 34.625 0.541656H2.37496C1.89978 0.541656 1.44406 0.730421 1.10806 1.06642C0.772057 1.40243 0.583294 1.85814 0.583294 2.33332C0.583294 2.8085 0.772057 3.26422 1.10806 3.60022C1.44406 3.93623 1.89978 4.12499 2.37496 4.12499H34.625C35.1001 4.12499 35.5559 3.93623 35.8919 3.60022C36.2279 3.26422 36.4166 2.8085 36.4166 2.33332ZM36.4166 9.49999C36.4166 9.02481 36.2279 8.56909 35.8919 8.23309C35.5559 7.89709 35.1001 7.70832 34.625 7.70832H2.37496C1.89978 7.70832 1.44406 7.89709 1.10806 8.23309C0.772057 8.56909 0.583294 9.02481 0.583294 9.49999C0.583294 9.97517 0.772057 10.4309 1.10806 10.7669C1.44406 11.1029 1.89978 11.2917 2.37496 11.2917H34.625C35.1001 11.2917 35.5559 11.1029 35.8919 10.7669C36.2279 10.4309 36.4166 9.97517 36.4166 9.49999ZM34.625 14.875C35.1001 14.875 35.5559 15.0638 35.8919 15.3998C36.2279 15.7358 36.4166 16.1915 36.4166 16.6667C36.4166 17.1418 36.2279 17.5976 35.8919 17.9336C35.5559 18.2696 35.1001 18.4583 34.625 18.4583H13.125C12.6498 18.4583 12.1941 18.2696 11.8581 17.9336C11.5221 17.5976 11.3333 17.1418 11.3333 16.6667C11.3333 16.1915 11.5221 15.7358 11.8581 15.3998C12.1941 15.0638 12.6498 14.875 13.125 14.875H34.625Z" fill="#5F5F5F"/>
</svg>
