<svg width="38" height="38" viewBox="0 0 38 38" fill="none" xmlns="http://www.w3.org/2000/svg">
<path fill-rule="evenodd" clip-rule="evenodd" d="M10.9166 21C12.2407 21 13.5519 20.7392 14.7753 20.2324C15.9987 19.7257 17.1103 18.983 18.0466 18.0467C18.9829 17.1103 19.7256 15.9988 20.2324 14.7754C20.7391 13.552 20.9999 12.2408 20.9999 10.9167C20.9999 9.5925 20.7391 8.2813 20.2324 7.05794C19.7256 5.83457 18.9829 4.72299 18.0466 3.78667C17.1103 2.85034 15.9987 2.10761 14.7753 1.60088C13.5519 1.09414 12.2407 0.833328 10.9166 0.833328C8.24232 0.833328 5.67758 1.89568 3.78659 3.78667C1.8956 5.67766 0.833252 8.24239 0.833252 10.9167C0.833252 13.5909 1.8956 16.1557 3.78659 18.0467C5.67758 19.9376 8.24232 21 10.9166 21ZM10.9166 4.51283C11.1597 4.51283 11.3929 4.60941 11.5648 4.78131C11.7367 4.95322 11.8333 5.18638 11.8333 5.42949V9.99999H16.4038C16.6469 9.99999 16.88 10.0966 17.0519 10.2685C17.2238 10.4404 17.3204 10.6735 17.3204 10.9167C17.3204 11.1598 17.2238 11.3929 17.0519 11.5648C16.88 11.7368 16.6469 11.8333 16.4038 11.8333H11.8333V16.4038C11.8333 16.6469 11.7367 16.8801 11.5648 17.052C11.3929 17.2239 11.1597 17.3205 10.9166 17.3205C10.6735 17.3205 10.4403 17.2239 10.2684 17.052C10.0965 16.8801 9.99992 16.6469 9.99992 16.4038V11.8333H5.42942C5.1863 11.8333 4.95315 11.7368 4.78124 11.5648C4.60933 11.3929 4.51275 11.1598 4.51275 10.9167C4.51275 10.6735 4.60933 10.4404 4.78124 10.2685C4.95315 10.0966 5.1863 9.99999 5.42942 9.99999H9.99992V5.42949C9.99992 5.18638 10.0965 4.95322 10.2684 4.78131C10.4403 4.60941 10.6735 4.51283 10.9166 4.51283Z" fill="black"/>
<path d="M36.5833 24.6667H33.4666C30.3866 24.6667 28.8466 24.6667 27.6696 25.2662C26.6347 25.7935 25.7934 26.6348 25.2661 27.6697C24.6666 28.8467 24.6666 30.3867 24.6666 33.4667V36.5833M27.4166 13.6667H24.6666M20.0833 21H22.8333M24.2083 6.33333H24.8499C28.9566 6.33333 31.0099 6.33333 32.5793 7.13266C33.959 7.83572 35.0809 8.95753 35.7839 10.3373C36.5833 11.9067 36.5833 13.96 36.5833 18.0667V24.3898C36.5833 26.1828 36.5833 27.0812 36.3816 27.9245C36.2001 28.6725 35.9049 29.3875 35.5016 30.0438C35.0488 30.7845 34.4144 31.4188 33.1458 32.6875L32.6874 33.1458C31.4188 34.4145 30.7844 35.0488 30.0438 35.5035C29.3878 35.9056 28.6726 36.2019 27.9244 36.3817C27.0811 36.5833 26.1828 36.5833 24.3898 36.5833H18.0666C13.9599 36.5833 11.9066 36.5833 10.3373 35.784C8.95746 35.0809 7.83565 33.9591 7.13259 32.5793C6.33325 31.01 6.33325 28.9567 6.33325 24.85V24.2083" stroke="black" stroke-width="2.75" stroke-linecap="round" stroke-linejoin="round"/>
</svg>
