<svg width="93" height="93" viewBox="0 0 93 93" fill="none" xmlns="http://www.w3.org/2000/svg">
<rect width="93" height="93" rx="46.5" fill="#F44336"/>
<path d="M73.3319 26.4721C68.569 25.9987 63.8061 25.6437 59.0136 25.3775V25.3479L58.3628 21.5021C57.919 18.7804 57.2682 14.6979 50.3457 14.6979H42.5948C35.7019 14.6979 35.0511 18.6029 34.5778 21.4725L33.9565 25.2592C31.2053 25.4367 28.454 25.6142 25.7028 25.8804L19.6678 26.4721C18.4253 26.5904 17.5378 27.685 17.6561 28.8979C17.7744 30.1108 18.8394 30.9983 20.0819 30.88L26.1169 30.2883C41.6186 28.75 57.2386 29.3417 72.9178 30.9096C73.0065 30.9096 73.0657 30.9096 73.1544 30.9096C74.2786 30.9096 75.2548 30.0517 75.3732 28.8979C75.4619 27.685 74.5744 26.5904 73.3319 26.4721Z" fill="white"/>
<path d="M67.8889 35.0808C67.1789 34.3413 66.2027 33.9271 65.1968 33.9271H27.8035C26.7977 33.9271 25.7918 34.3413 25.1114 35.0808C24.431 35.8204 24.0464 36.8263 24.1056 37.8617L25.9397 68.2142C26.2652 72.7108 26.6793 78.3317 37.0039 78.3317H55.9964C66.321 78.3317 66.7352 72.7404 67.0606 68.2142L68.8947 37.8913C68.9539 36.8263 68.5693 35.8204 67.8889 35.0808ZM51.411 63.5104H41.5597C40.3468 63.5104 39.341 62.5046 39.341 61.2917C39.341 60.0788 40.3468 59.0729 41.5597 59.0729H51.411C52.6239 59.0729 53.6297 60.0788 53.6297 61.2917C53.6297 62.5046 52.6239 63.5104 51.411 63.5104ZM53.896 51.6771H39.1043C37.8914 51.6771 36.8856 50.6713 36.8856 49.4583C36.8856 48.2454 37.8914 47.2396 39.1043 47.2396H53.896C55.1089 47.2396 56.1147 48.2454 56.1147 49.4583C56.1147 50.6713 55.1089 51.6771 53.896 51.6771Z" fill="white"/>
</svg>
