<svg width="20" height="20" viewBox="0 0 20 20" fill="none" xmlns="http://www.w3.org/2000/svg">
<g opacity="0.2">
<path d="M16 7H8C7.44772 7 7 7.44772 7 8V17.5C7 18.0523 7.44772 18.5 8 18.5H16C16.5523 18.5 17 18.0523 17 17.5V8C17 7.44772 16.5523 7 16 7Z" fill="black"/>
<path fill-rule="evenodd" clip-rule="evenodd" d="M10.016 4.25C10.0769 3.76674 10.312 3.32231 10.6773 3.0001C11.0426 2.6779 11.5129 2.50008 12 2.5C13.018 2.5 13.86 3.265 13.984 4.25H17C17.1989 4.25 17.3897 4.32902 17.5303 4.46967C17.671 4.61032 17.75 4.80109 17.75 5C17.75 5.19891 17.671 5.38968 17.5303 5.53033C17.3897 5.67098 17.1989 5.75 17 5.75H7C6.80109 5.75 6.61032 5.67098 6.46967 5.53033C6.32902 5.38968 6.25 5.19891 6.25 5C6.25 4.80109 6.32902 4.61032 6.46967 4.46967C6.61032 4.32902 6.80109 4.25 7 4.25H10.016Z" fill="black"/>
</g>
<path d="M8.5 14.999C8.5 15.1316 8.44732 15.2588 8.35355 15.3526C8.25979 15.4463 8.13261 15.499 8 15.499C7.86739 15.499 7.74021 15.4463 7.64645 15.3526C7.55268 15.2588 7.5 15.1316 7.5 14.999V8.999C7.5 8.86639 7.55268 8.73921 7.64645 8.64544C7.74021 8.55168 7.86739 8.499 8 8.499C8.13261 8.499 8.25979 8.55168 8.35355 8.64544C8.44732 8.73921 8.5 8.86639 8.5 8.999V14.999ZM10.5 14.999C10.5 15.1316 10.4473 15.2588 10.3536 15.3526C10.2598 15.4463 10.1326 15.499 10 15.499C9.86739 15.499 9.74021 15.4463 9.64645 15.3526C9.55268 15.2588 9.5 15.1316 9.5 14.999V8.999C9.5 8.86639 9.55268 8.73921 9.64645 8.64544C9.74021 8.55168 9.86739 8.499 10 8.499C10.1326 8.499 10.2598 8.55168 10.3536 8.64544C10.4473 8.73921 10.5 8.86639 10.5 8.999V14.999ZM12.5 14.999C12.5 15.1316 12.4473 15.2588 12.3536 15.3526C12.2598 15.4463 12.1326 15.499 12 15.499C11.8674 15.499 11.7402 15.4463 11.6464 15.3526C11.5527 15.2588 11.5 15.1316 11.5 14.999V8.999C11.5 8.86639 11.5527 8.73921 11.6464 8.64544C11.7402 8.55168 11.8674 8.499 12 8.499C12.1326 8.499 12.2598 8.55168 12.3536 8.64544C12.4473 8.73921 12.5 8.86639 12.5 8.999V14.999ZM11.5 4.499H8.5C8.51405 4.11065 8.67817 3.74288 8.95784 3.47306C9.2375 3.20324 9.61091 3.05241 9.99952 3.05228C10.3881 3.05215 10.7616 3.20274 11.0415 3.47237C11.3213 3.742 11.4857 4.11066 11.5 4.499Z" fill="black"/>
<path d="M4.5 4.99899C4.36739 4.99899 4.24021 4.94631 4.14645 4.85255C4.05268 4.75878 4 4.6316 4 4.49899C4 4.36638 4.05268 4.23921 4.14645 4.14544C4.24021 4.05167 4.36739 3.99899 4.5 3.99899H15.5C15.6326 3.99899 15.7598 4.05167 15.8536 4.14544C15.9473 4.23921 16 4.36638 16 4.49899C16 4.6316 15.9473 4.75878 15.8536 4.85255C15.7598 4.94631 15.6326 4.99899 15.5 4.99899H4.5Z" fill="black"/>
<path fill-rule="evenodd" clip-rule="evenodd" d="M14.5 5.5H5.5C5.36739 5.5 5.24021 5.55268 5.14645 5.64645C5.05268 5.74021 5 5.86739 5 6V17C5 17.1326 5.05268 17.2598 5.14645 17.3536C5.24021 17.4473 5.36739 17.5 5.5 17.5H14.5C14.6326 17.5 14.7598 17.4473 14.8536 17.3536C14.9473 17.2598 15 17.1326 15 17V6C15 5.86739 14.9473 5.74021 14.8536 5.64645C14.7598 5.55268 14.6326 5.5 14.5 5.5ZM6 16.5V6.5H14V16.5H6Z" fill="black"/>
</svg>
